<svg width="126" height="108" viewBox="0 0 126 108" fill="none" xmlns="http://www.w3.org/2000/svg">
<path d="M69.9193 5.35869C70.9355 9.19707 68.5798 13.1268 64.6535 14.1436C60.7271 15.1603 56.7315 12.8641 55.7153 9.02572C54.6991 5.18733 57.0664 1.24614 60.9927 0.240847C64.9075 -0.775868 68.9147 1.52031 69.9193 5.35869ZM125.465 79.4874C125.373 79.7045 124.726 80.1043 124.726 80.1043C121.516 82.3434 117.058 83.3829 111.839 84.2854C109.171 84.571 106.111 84.9366 102.242 84.8909C102.242 84.8909 84.2388 85.1079 78.1646 85.3935C72.7255 85.6449 64.4571 85.2564 62.3554 83.4401C59.8148 81.2581 59.7456 76.7686 74.6656 69.8687C89.9782 62.7973 94.5165 65.1621 96.3873 60.4897C98.3736 55.509 90.6826 51.8991 80.7629 50.4939C80.7629 50.4939 67.2056 50.0827 74.3076 45.9816C74.3076 45.9816 76.8019 44.725 83.1995 43.5026C89.5971 42.2803 97.5421 41.572 97.9463 41.2064C99.1357 40.0983 96.5721 35.9515 96.5721 35.9515L90.8789 24.3335L86.1212 13.0355L85.717 12.0873L78.3263 20.5409L78.0607 20.3809L80.7398 16.1427L80.6128 16.0171C80.6128 16.0171 74.5154 20.7808 74.885 20.4837C75.2545 20.1982 73.5223 20.2781 73.5223 20.2781L63.3023 29.7141L63.0714 29.3372L71.7555 20.9978L68.1178 17.3993L61.2814 24.3221L57.4937 28.5946L57.0549 28.3319L57.6092 27.7036L61.293 23.6824L61.1429 23.4882L55.5305 28.7888L50.4494 22.0602L41.315 29.6913C33.8434 36.7854 26.9839 42.3945 26.9839 42.3945C26.9839 42.3945 25.1362 43.3427 27.134 43.0114C29.1318 42.6915 33.4854 41.2636 35.9682 40.601C38.2778 39.9727 33.3122 43.4569 33.3122 43.4569C33.3122 43.4569 37.0884 42.8629 38.4511 42.5887C43.2088 41.6405 43.3243 41.6862 47.0659 40.6353C47.2968 40.5667 47.5239 40.5058 47.7472 40.4525C40.2179 43.4798 31.1296 46.9526 33.0235 49.3858C35.8066 52.9729 60.0227 51.1108 62.6787 53.7726C64.5495 55.6689 64.4109 58.4335 57.9903 62.6717C51.558 66.9099 34.6171 76.2317 32.6886 83.897C30.7601 91.5624 37.2732 99.0449 47.7125 101.924C58.1635 104.802 69.4343 104.311 81.8599 102.289C94.3664 100.267 96.3527 100.13 103.524 97.8911C114.044 94.6696 116.388 93.2873 117 92.8075C117.636 92.3163 116.816 92.1221 116.816 92.1221C116.354 92.2249 107.635 94.5211 105.984 94.5668C104.332 94.6125 105.764 93.7786 106.607 93.1503C107.439 92.522 107.358 92.6133 107.058 92.5676C106.746 92.522 101.826 93.1388 99.0895 93.0246C96.3527 92.9104 98.6276 92.065 98.6276 92.065C105.164 92.3049 112.312 89.8831 113.109 89.5746C113.906 89.2548 113.779 88.8549 113.224 88.615C112.67 88.3751 109.679 88.2609 110.892 87.9182C112.104 87.5869 120.73 84.6396 122.867 83.6C124.992 82.549 125.407 80.0701 125.407 80.0701C125.407 80.0701 125.569 79.2704 125.465 79.4874ZM33.751 106.47C26.6721 105.259 5.29679 98.8164 4.49998 81.2696C3.93412 69.0233 15.817 63.5742 15.7593 58.8333C15.7015 53.8754 -2.46346 50.3797 0.920099 35.4831C1.62453 32.4216 6.9135 24.0137 18.0689 17.6392C18.0689 17.6392 26.395 12.5442 34.9174 10.4423C42.8508 8.4888 55.1841 7.0951 52.5743 7.7691C37.2616 11.6646 52.4934 8.75155 52.4934 9.01429C52.4934 9.27704 44.3405 11.5047 43.3705 11.9959C42.4813 12.4414 48.7634 11.1962 48.8673 11.5961C48.9713 11.9845 30.1942 15.8343 19.8011 32.0903C19.8011 32.0903 12.5836 45.8102 27.5498 52.5617C34.8019 55.8288 39.3749 55.726 43.7747 56.2515C46.3845 56.56 47.4585 56.6514 49.0983 57.2682C49.9067 57.5653 50.4263 58.205 50.4263 58.799C50.461 61.3579 42.9548 63.5285 42.9548 63.5285C38.9707 65.3334 21.3485 72.3476 21.5448 84.4568C21.6834 92.8761 26.0601 98.508 42.5737 104.208C44.8717 104.997 45.4491 105.397 45.3799 105.556C45.3337 105.648 40.1371 103.866 40.0678 103.969C39.8022 104.391 47.5393 106.459 47.47 106.882C47.4123 107.213 40.6452 105.362 40.5643 105.591C40.368 106.196 48.7288 107.419 48.6595 107.944C44.8025 108.344 33.751 106.47 33.751 106.47Z" fill="#5D5FEF"/>
</svg>
